{"title":"La vendetta e il mio perdono","uid":8938290,"size":732686336,"categoryP":"video","categoryS":"movies","magnet":"?xt=urn:btih:ef4b19ff08da8ddf531f68a7fdeaca46bb314451&amp;dn=La+vendetta+e+il+mio+perdono&amp;tr=udp%3A%2F%2Ftracker.openbittorrent.com%3A80&amp;tr=udp%3A%2F%2Fopen.demonii.com%3A1337&amp;tr=udp%3A%2F%2Ftracker.coppersurfer.tk%3A6969&amp;tr=udp%3A%2F%2Fexodus.desync.com%3A6969","seeders":0,"leechers":0,"uploader":"90stosa","files":1,"time":1379617480,"description":"-further info about the film: &lt;a href=&quot;\nhttp://www.spaghetti-western.net/index.php/Vendetta_%C3%A8_il_mio_perdono,_La&quot; rel=&quot;nofollow&quot; target=&quot;_NEW&quot;&gt;\nhttp://www.spaghetti-western.net/index.php/Vendetta_%C3%A8_il_mio_perdono,_La&lt;/a&gt;\n\n-image sample: &lt;a href=&quot;\nhttp://img189.imageshack.us/img189/6097/cap023v.png&quot; rel=&quot;nofollow&quot; target=&quot;_NEW&quot;&gt;\nhttp://img189.imageshack.us/img189/6097/cap023v.png&lt;/a&gt;\n\n-rip details:\nGeneral\nComplete name                            : Videos/Spaghetti/VendettaIlMioPerdono-MPEG2.avi\nFormat                                   : AVI\nFormat/Info                              : Audio Video Interleave\nFile size                                : 699 MiB\nDuration                                 : 1h 34mn\nOverall bit rate mode                    : Variable\nOverall bit rate                         : 1 037 Kbps\nWriting application                      : VirtualDubMod 1.5.4.1 (build 2178/release)\nWriting library                          : VirtualDubMod build 2178/release\n\nVideo\nID                                       : 0\nFormat                                   : MPEG-4 Visual\nFormat profile                           : Advanced Simple@L5\nFormat settings, BVOP                    : 1\nFormat settings, QPel                    : No\nFormat settings, GMC                     : No warppoints\nFormat settings, Matrix                  : Custom\nCodec ID                                 : XVID\nCodec ID/Hint                            : XviD\nDuration                                 : 1h 34mn\nBit rate                                 : 918 Kbps\nWidth                                    : 336 pixels\nHeight                                   : 256 pixels\nDisplay aspect ratio                     : 4:3\nFrame rate                               : 29.970 fps\nColor space                              : YUV\nChroma subsampling                       : 4:2:0\nBit depth                                : 8 bits\nScan type                                : Progressive\nCompression mode                         : Lossy\nBits/(Pixel*Frame)                       : 0.356\nStream size                              : 618 MiB (89%)\nWriting library                          : XviD 1.1.0 (UTC 2005-11-22)\n\nAudio\nID                                       : 1\nFormat                                   : MPEG Audio\nFormat version                           : Version 1\nFormat profile                           : Layer 3\nLanguage---------------------------------: English\nMode                                     : Joint stereo\nMode extension                           : MS Stereo\nCodec ID                                 : 55\nCodec ID/Hint                            : MP3\nDuration                                 : 1h 34mn\nBit rate mode                            : Variable\nBit rate                                 : 105 Kbps\nNominal bit rate                         : 128 Kbps\nChannel(s)                               : 2 channels\nSampling rate                            : 48.0 KHz\nCompression mode                         : Lossy\nStream size                              : 70.9 MiB (10%)\nAlignment                                : Aligned on interleaves\nInterleave, duration                     : 24 ms (0.72 video frame)\nInterleave, preload duration             : 499 ms\nWriting library                          : LAME3.97b\nEncoding settings                        : -m j -V 4 -q 2 -lowpass 17 --abr 128","torrent":{"xt":"urn:btih:ef4b19ff08da8ddf531f68a7fdeaca46bb314451","amp;dn":"La+vendetta+e+il+mio+perdono","amp;tr":["udp%3A%2F%2Ftracker.openbittorrent.com%3A80","udp%3A%2F%2Fopen.demonii.com%3A1337","udp%3A%2F%2Ftracker.coppersurfer.tk%3A6969","udp%3A%2F%2Fexodus.desync.com%3A6969"],"infoHash":"ef4b19ff08da8ddf531f68a7fdeaca46bb314451","infoHashBuffer":{"type":"Buffer","data":[239,75,25,255,8,218,141,223,83,31,104,167,253,234,202,70,187,49,68,81]},"announce":[],"urlList":[]}}